<svg version="1.1" xmlns="http://www.w3.org/2000/svg" xmlns:xlink="http://www.w3.org/1999/xlink" width="290.3863" height="143" viewBox="0,0,290.3863,143"><g transform="translate(-94.80685,-108.5)"><g data-paper-data="{&quot;isPaintingLayer&quot;:true}" stroke-miterlimit="10" stroke-dasharray="" stroke-dashoffset="0" style="mix-blend-mode: normal"><path d="M95.47209,251.5v-143h287v143z" fill="#00ff00" fill-rule="nonzero" stroke="#000000" stroke-width="0" stroke-linecap="butt" stroke-linejoin="miter"/><path d="M378.42104,235.69385l-0.94895,1.02486c-1.47796,0 -7.69616,0.01163 -8.23172,-0.06083c-7.20304,-0.97456 -7.78103,-2.42874 -13.14561,-1.95468c-6.67391,0.58976 -13.32242,1.4534 -20,2c-2.8643,0.23446 -5.76693,-0.48784 -8.62039,-0.14589c-1.0466,0.12542 -1.95173,0.88934 -3,1c-8.28151,0.8742 -18.49343,0.65254 -26.779,0.13725c-5.66631,-0.3524 -11.25017,-1.61254 -16.91454,-1.99497c-12.23425,-0.82601 -24.29127,1.02302 -36.30875,3.01913c-8.5244,-1.45112 -17.0307,-0.70565 -25.52729,-2.09366c-3.49983,-0.57173 -7.03613,1.09473 -10.58235,1.09317c-2.61484,-0.00114 -5.17489,-0.76805 -7.77648,-1.03097c-4.98991,-0.50428 -10.14287,0.49199 -15.14489,-0.01114c-6.78294,-0.68227 -13.34487,-3.03147 -19.97127,-4.11882c-6.5164,-1.06929 -13.07988,-0.42853 -19.49257,-2.33709c-4.99274,-1.26127 -9.5605,-0.97724 -14.53616,-1.54409c-2.67984,-0.3053 -5.34685,-0.75153 -7.98214,-1.32601c-1.72661,-0.37639 -3.22887,-1.63687 -4.98913,-1.79281c-6.34357,-0.56198 -11.71081,2.62599 -17.83656,-3.49976c-2.92083,-2.92083 -2.67168,-7.82843 -3.66117,-11.83883c-0.31947,-1.29483 0.43521,-2.69247 0.16141,-3.99772c-0.55336,-2.63796 -1.11792,-5.30726 -1.16141,-8.00228c-0.03692,-2.28773 0.75939,-6.79078 -0.35854,-9.04715c0,0 -0.61375,-1.84125 -0.63204,-4.31454c-0.33678,-1.85787 -0.21774,-4.04183 0.63204,-6.59116c3.95285,-11.85854 15.81139,-7.90569 15.81139,-7.90569c1.22396,0.60642 2.71884,0.26669 4.07816,0.40113c4.20152,0.41554 8.29067,1.99536 12.51259,1.96574c1.44317,-0.01012 2.79162,-0.77662 4.22468,-0.9475c2.06214,-0.24589 4.16692,0.34326 6.22944,0.10057c2.09907,-0.24699 4.24494,-2.40103 5.94536,-3.09284c2.02433,-0.82358 4.17375,-1.32467 6.31457,-1.76404c2.81295,-0.57732 5.64767,-1.24813 8.51907,-1.28037c2.79051,-0.03134 5.29375,1.48169 8.221,1.13725c2.09374,-0.24636 3.91991,-1.65694 6,-2c1.64606,-0.27147 3.33485,-0.1076 5.00228,-0.16141c1.16618,0 6.57724,-0.01437 7.23172,0.06083c1.83079,0.21038 3.65947,1.75728 5.40444,1.16471c1.69972,-0.57721 3.22597,-1.72604 5,-2c5.61031,-0.8664 9.15489,-0.31986 14.14739,1.72596c4.06804,1.667 8.07777,3.55711 11.7881,5.91536c1.97168,1.25318 3.80422,2.71796 5.61838,4.18996c0.82674,0.67081 1.31287,1.82007 2.30187,2.21423c1.55866,0.62119 3.25135,0.86436 4.80758,1.49163c1.04981,0.42315 1.95131,1.25732 3.06437,1.46286c2.17653,0.40192 4.42283,-0.22555 6.63616,-0.22555h1c0,0 0.25747,0 0.69849,0.03695c2.05562,-0.08168 4.77942,-1.62489 6.29923,-1.87554c1.64606,-0.27147 3.33432,-0.12776 5.00228,-0.16141c5.72319,-0.11544 12.34055,-0.7204 18.00228,0.16141c0.56104,0.08738 0.92339,0.72353 1.47743,0.8478c0.16632,0.0373 -0.13232,-0.44619 0.02545,-0.51071c1.44617,-0.59146 2.94923,-1.09352 4.49257,-1.33709c3.65344,-0.57659 9.04819,1.03619 12.51038,-0.89035c1.05021,-0.58439 2,-1.33333 3,-2c5.94389,-1.93225 12.67801,-3.73883 19.01918,-3.1774c3.75043,0.33205 7.02321,1.56032 10.94542,1c1.85927,-0.26561 3.64914,-1.09366 5.52729,-1.09366c1.86031,0 3.69064,1.62748 5.47271,1.09366c4.9579,-1.48514 8.33797,-2.87545 13.52729,-3.09366h2c0,0 0.26575,0 0.71975,0.03875c2.05997,-0.08466 4.54548,-1.66286 6.27797,-1.87734c2.31716,-0.28687 4.68128,-0.23222 7.00456,0c1.35483,0.13542 2.65362,1.05604 3.99772,0.83859h1c0,0 9.99119,12.65501 9.97403,12.96953c1.02597,2.66967 7.52597,53.38956 -4.02508,54.00561z" fill="#00b200" fill-rule="nonzero" stroke="none" stroke-width="0.5" stroke-linecap="butt" stroke-linejoin="miter"/><g fill-rule="evenodd"><path d="M151.63545,200.77922c0.8,0.4 2.5,1.3 0.1,4.7c-2.4,3.4 -9.3,4.1 -10.1,4.1c-3.1,0.1 -6.9,0.1 -11.1,-1.3c-12.2,-4 -12.3,-17.1 -8.4,-19.2c3.8,-2.1 5.5,6 11,10.9c2.4,2.2 5.3,3 7.7,3.5c3.4,0.6 9.9,-3.2 10.8,-2.7z" fill="#00ff02" stroke="#012600" stroke-width="1.2" stroke-linecap="round" stroke-linejoin="round"/><path d="M126.83545,192.67922c1.6,2.7 4.7,6.5 4.7,6.5c0,0 -3.7,-0.9 -5.8,0.8c-1.7,1.3 -1.3,3.5 -1.1,4.2c-1.3,-1.3 -2.9,-3.1 -3.9,-6.6c-1,-3.5 0,-7.7 2,-8.3c2,-0.4 2.5,1.1 4.1,3.4z" fill="#ffffff" stroke="none" stroke-width="1" stroke-linecap="butt" stroke-linejoin="miter"/></g><path d="M156.63545,211.17922c-1.8,1.2 -8,5.6 -15.9,8.1l-0.4,0.1c-0.4,0.1 -0.6,0.6 -0.4,1c1.7,2.4 4.8,7.2 -0.7,8.9c-5.3,1.7 -15.2,-12.4 -11,-16.1c1.9,-1.4 3.6,-0.7 4.5,-0.3c0.5,0.2 1,0.2 1.5,0.1c1.2,-0.4 3.4,-1.2 5.1,-2.1c4.3,-2.2 5.3,-3.1 7.3,-4.6c2,-1.5 6.6,-5.2 10.3,-2c3.2,2.7 1.4,5.7 -0.3,6.9z" fill="#00ff02" fill-rule="evenodd" stroke="#012600" stroke-width="1.2" stroke-linecap="round" stroke-linejoin="round"/><path d="M172.53545,190.37922c0.5,0.4 6.6,7.6 8.6,5.8c2.4,-2.1 5.7,-6.2 9.3,-2.9c3.6,3.3 -3.2,8.9 -6.1,10.4c-6.9,3.1 -12.5,-2.8 -13.7,-4.4c-1.2,-1.6 -3.3,-4.3 -3.3,-6.9c0.1,-2.8 3.5,-3.5 5.2,-2z" fill="#00ff02" fill-rule="evenodd" stroke="#012600" stroke-width="1.2" stroke-linecap="round" stroke-linejoin="round"/><g fill-rule="evenodd"><path d="M172.63545,213.67922c2.1,1.9 6.7,5.8 6.7,5.8c0,0 14.3,-2.5 14.3,4.7c0,4.3 -7.2,5.3 -16.9,4.4c-0.6,-0.1 -1.2,-0.3 -1.7,-0.7c-2.2,-1.9 -8.5,-7.5 -12.5,-11.4c-5.9,-5.8 -10.8,-9.6 -10.8,-9.6c-8.5,-8.3 -1.6,-11.8 1.1,-16.6c2.5,-4.1 3.6,-3.3 9.6,-2.1c3.4,0.5 5.4,0.8 7.6,0.7c3.3,-0.1 2.7,4.7 1.8,7.2c0,0 -1.4,3.7 -2.7,5.6c-1.6,2.3 -2.8,3.8 -4,4.7z" fill="#00ff02" stroke="#012600" stroke-width="1.2" stroke-linecap="round" stroke-linejoin="round"/><path d="M164.23545,206.27922c0,0 -1.5,-1.2 -3.1,-2.7c-2,-1.8 -4,-3.3 -2,-6.4c1.8,-2.4 3.5,-5.6 8,-2.7c4.3,2.7 2.4,5.2 2.4,5.2c-2.2,4.5 -5.3,6.6 -5.3,6.6z" fill="#ffffff" stroke="none" stroke-width="1" stroke-linecap="butt" stroke-linejoin="miter"/></g><path d="M149.13545,198.07922c2.2,2.8 5.6,6.3 1.3,9.2c-5.9,3.3 -10.8,-6.7 -11.8,-10.2c-0.9,-3.1 1.7,-5.1 3.9,-6.8c4.3,-3.1 7.9,-5.9 11.9,-4.4c5,1.8 1.4,5.8 -1.1,7.6c-1.5,1.1 -3,2.3 -4.1,3c-0.3,0.5 -0.4,1.1 -0.1,1.6z" fill="#00ff02" fill-rule="evenodd" stroke="#012600" stroke-width="1.2" stroke-linecap="round" stroke-linejoin="round"/><g fill-rule="evenodd"><path d="M180.63545,130.67922c0.3,-0.2 0.8,-0.1 0.9,0.3l2.6,10.7c0,0 6.4,4.7 8.3,8c3.2,5.5 3.3,10 3.3,10c0,0 7.1,2.1 8.3,7.8c1.2,5.7 -3.2,16.5 -22,20.2c-18.8,3.7 -33.9,-1.4 -41,-12.8c-7.1,-11.4 4.1,-25 3.5,-24.2l-2.1,-17.9c-0.1,-0.4 0.4,-0.7 0.8,-0.5l12.1,7.9c0,0 4.5,-1.7 9.2,-1.9c2.8,-0.2 5.2,0 7.5,0.4z" fill="#00ff02" stroke="#012600" stroke-width="1.2" stroke-linecap="butt" stroke-linejoin="miter"/><path d="M195.43545,160.07922c0,0 6.9,1.8 8.1,7.5c1.2,5.7 -3.6,16 -22.2,19.6c-24.2,5 -35.7,-9.4 -29,-20c6.7,-10.7 18.2,-1.6 26.6,-2.2c7.2,-0.5 8,-6.8 16.5,-4.9z" fill="#ffffff" stroke="none" stroke-width="1" stroke-linecap="butt" stroke-linejoin="miter"/><path d="M163.93545,170.77922c0,-0.4 0.4,-0.7 0.8,-0.6c1.9,0.7 7.3,2.3 13.3,2.7c5.4,0.3 8.6,0 10.1,-0.3c0.5,-0.1 0.9,0.4 0.7,0.9c-0.9,2.7 -4.7,10.2 -15.2,9.6c-9.1,-1 -10,-7.4 -9.7,-12.3z" fill="#ffffff" stroke="#001026" stroke-width="1.2" stroke-linecap="round" stroke-linejoin="round"/><path d="M213.83545,161.17922c-4.7,3.8 -11.9,3.9 -11.9,3.9" fill="none" stroke="#012600" stroke-width="1.2" stroke-linecap="round" stroke-linejoin="round"/><path d="M212.53545,172.37922c-6.3,0.5 -10.2,-1.4 -10.2,-1.4" fill="none" stroke="#012600" stroke-width="1.2" stroke-linecap="round" stroke-linejoin="round"/><path d="M178.53545,162.37922c2.1,0 4.3,0.2 4.4,0.9c0.1,1.4 -1.4,4.2 -3,4.3c-1.8,0.2 -6,-2.3 -6,-3.9c-0.1,-1.2 2.6,-1.3 4.6,-1.3z" fill="#001026" stroke="#001026" stroke-width="1.2" stroke-linecap="round" stroke-linejoin="round"/><path d="M133.53545,160.87922c0,0 8.6,2.8 12.1,5.9" fill="none" stroke="#012600" stroke-width="1.2" stroke-linecap="round" stroke-linejoin="round"/><path d="M145.93545,170.27922c-4.3,1.7 -11.7,0.6 -11.7,0.6" fill="none" stroke="#012600" stroke-width="1.2" stroke-linecap="round" stroke-linejoin="round"/><g><path d="M190.33545,150.67922c2.9,4.5 3,9.6 0.2,11.4c-2.8,1.8 -7.4,-0.3 -10.4,-4.8c-2.9,-4.5 -3,-9.6 -0.2,-11.4c2.8,-1.9 7.5,0.3 10.4,4.8z" fill="#ffffff" stroke="#012600" stroke-width="1.2" stroke-linecap="round" stroke-linejoin="round"/><path d="M189.93545,156.37922c0,1.1 -0.8,2 -1.8,2c-1,0 -1.8,-0.9 -1.8,-2c0,-1.1 0.8,-2 1.8,-2c1,0 1.8,0.9 1.8,2" fill="#001026" stroke="none" stroke-width="1" stroke-linecap="butt" stroke-linejoin="miter"/></g><g><path d="M165.53545,153.47922c3,4.4 2.8,9.8 0.1,11.7c-3.3,1.9 -7.7,0.5 -10.7,-3.9c-3.1,-4.4 -3.3,-10.1 -0.2,-12.3c3.1,-2.3 7.8,0.1 10.8,4.5z" fill="#ffffff" stroke="#012600" stroke-width="1.2" stroke-linecap="round" stroke-linejoin="round"/><path d="M164.93545,159.27922c0,1.1 -0.8,2 -1.8,2c-1,0 -1.8,-0.9 -1.8,-2c0,-1.1 0.8,-2 1.8,-2c1,0.1 1.8,0.9 1.8,2" fill="#001026" stroke="none" stroke-width="1" stroke-linecap="butt" stroke-linejoin="miter"/></g></g><g fill-rule="nonzero" stroke="none" stroke-width="1" stroke-linecap="butt" stroke-linejoin="miter"><path d="M328.55572,139.95846l-7.123,44.764l-68.446,1.14l-11.07,-44.875z" fill="#ffffff"/><path d="M335.72572,135.66746l-10.867,53.431l-73.033,0.512l-17.624,-52.199zM328.55572,139.95846l-86.639,1.029l13.07,43.875l66.446,-0.14z" fill="#0000a1"/></g><g fill-rule="nonzero" stroke="none" stroke-width="1" stroke-linecap="butt" stroke-linejoin="miter"><path d="M234.75772,209.42246h-16.671l33.119,-20.963h73.764l33.118,20.963h-12.176l0.008,-0.015l-111.166,0.01z" fill="#0084e7"/><path d="M358.06372,209.40746l-5.952,6.535h-128.333l-5.628,-6.535z" fill="#0000a1"/></g><g fill="#ffffff" fill-rule="nonzero" stroke="none" stroke-width="1" stroke-linecap="butt" stroke-linejoin="miter"><path d="M286.88972,195.03046h-3.662l0.151,-1.093h3.501z"/><path d="M268.36872,195.03046l0.679,-1.093h5.963l-0.41,1.093z"/><path d="M310.86472,192.10346l0.818,0.947h-5.263l-0.608,-0.947z"/><path d="M299.14472,195.03046h-6.766l-0.165,-1.093h6.494z"/><path d="M291.48272,195.03046h-3.706l-0.009,-1.093h3.549z"/><path d="M273.45372,198.08946l-0.458,1.224h-7.283l0.759,-1.224z"/><path d="M313.39072,195.03046h-5.699l-0.702,-1.093h5.457z"/><path d="M306.63772,195.03046h-6.538l-0.437,-1.093h6.273z"/><path d="M275.54772,195.03046l0.41,-1.093h6.525l-0.151,1.093z"/><path d="M286.91772,198.08946l0.01,1.224h-4.292l0.169,-1.224z"/><path d="M298.35472,193.05046h-6.275l-0.142,-0.947h6.039z"/><path d="M292.12772,199.31346h-4.313l-0.011,-1.224h4.139z"/><path d="M291.18372,193.05046h-3.425l-0.008,-0.947h3.29z"/><path d="M270.18472,192.10346h5.513l-0.355,0.947h-5.745z"/><path d="M260.56272,195.03046h-5.264l1.144,-1.093h5.035z"/><path d="M305.36472,193.05046h-6.055l-0.378,-0.947h5.825z"/><path d="M281.74072,199.31346h-7.798l0.459,-1.224h7.508z"/><path d="M264.16872,192.10346h4.973l-0.588,0.947h-5.178z"/><path d="M300.01172,197.20246h-7.306l-0.193,-1.285h6.985z"/><path d="M308.03372,197.20246h-7.067l-0.513,-1.285h6.754z"/><path d="M312.03672,192.10346h4.553l1.013,0.947h-4.748z"/><path d="M315.26372,197.20246h-6.175l-0.826,-1.285h5.892z"/><path d="M258.00272,198.08946l-1.024,1.224h-6.16l1.28,-1.224z"/><path d="M262.21972,193.05046h-4.849l0.99,-0.947h4.651z"/><path d="M258.74472,197.20246h-5.718l1.344,-1.285h5.449z"/><path d="M313.61872,193.93746h4.931l1.169,1.093h-5.156z"/><path d="M261.71872,195.03046l0.915,-1.093h5.37l-0.678,1.093z"/><path d="M265.42872,198.08946l-0.759,1.224h-6.534l1.024,-1.224z"/><path d="M291.80972,197.20246h-4.014l-0.011,-1.285h3.83z"/><path d="M259.90072,197.20246l1.076,-1.285h5.799l-0.797,1.285z"/><path d="M286.90972,197.20246h-3.982l0.178,-1.285h3.792z"/><path d="M273.78672,197.20246h-6.764l0.796,-1.285h6.45z"/><path d="M274.73372,197.20246l0.482,-1.285h6.994l-0.178,1.285z"/><path d="M286.87272,193.05046h-3.371l0.13,-0.947h3.232z"/><path d="M249.53472,199.31346h-5.679l1.51,-1.224h5.45z"/><path d="M272.66372,200.19946l-0.631,1.682h-7.913l1.044,-1.682z"/><path d="M321.96572,195.91746h5.032l1.621,1.285h-5.28z"/><path d="M300.36472,198.08946l0.489,1.224h-7.829l-0.185,-1.224z"/><path d="M326.54272,200.19946h5.856l2.122,1.682h-6.181z"/><path d="M286.95072,201.88146h-13.595h-0.375l0.63,-1.682h13.325z"/><path d="M251.74272,197.20246h-5.282l1.587,-1.285h5.039z"/><path d="M324.28672,198.08946h5.45l1.544,1.224h-5.686z"/><path d="M256.08672,193.05046h-4.499l1.17,-0.947h4.32z"/><path d="M301.87872,201.88146h-14.041l-0.015,-1.682h13.384z"/><path d="M254.01472,195.03046h-4.872l1.35,-1.093h4.666z"/><path d="M327.04172,201.88146h-6.57l-1.451,-1.682h6.223z"/><path d="M319.84872,193.93746h4.651l1.38,1.093h-4.862z"/><path d="M318.89972,193.05046l-1.012,-0.947h4.299l1.195,0.947z"/><path d="M308.60372,198.08946l0.786,1.224h-7.581l-0.489,-1.224z"/><path d="M317.19972,198.08946h5.788l1.308,1.224h-6.04z"/><path d="M264.11972,200.19946l-1.043,1.682h-7.091l1.408,-1.682z"/><path d="M317.84872,200.19946l1.451,1.682h-7.205l-1.08,-1.682z"/><path d="M315.32672,195.91746h5.34l1.373,1.285h-5.604z"/><path d="M276.29072,193.05046l0.355,-0.947h0.375h5.715l-0.13,0.947z"/><path d="M309.95972,200.19946l1.08,1.682h-8.206l-0.671,-1.682z"/><path d="M316.02772,198.08946l1.056,1.224h-6.64l-0.786,-1.224z"/><path d="M248.60772,200.19946l-1.759,1.682h-6.165l2.077,-1.682z"/><path d="M256.23672,200.19946l-1.407,1.682h-6.698l1.76,-1.682z"/><path d="M286.98172,205.25746h-15.266l0.925,-2.469c0.127,0 0.248,0 0.375,0c5.255,0 9.913,0 13.944,-0.001z"/><path d="M303.57972,206.14446l0.645,1.615l-33.073,0.002h-0.375l0.606,-1.617z"/><path d="M302.23672,202.78146l0.988,2.476h-15.357l-0.022,-2.47c6.707,-0.001 11.561,-0.003 14.391,-0.006z"/></g><text transform="translate(251.19956,166.09046) scale(0.43561,0.43561)" font-size="40" xml:space="preserve" fill="#00ff02" fill-rule="nonzero" stroke="none" stroke-width="1" stroke-linecap="butt" stroke-linejoin="miter" stroke-miterlimit="10" stroke-dasharray="" stroke-dashoffset="0" font-family="Sans Serif" font-weight="normal" text-anchor="start" style="mix-blend-mode: normal"><tspan x="0" dy="0">welcome</tspan></text></g></g></svg>